<?xml version="1.0" encoding="UTF-8" standalone="no"?>
<!DOCTYPE svg PUBLIC "-//W3C//DTD SVG 1.1//EN" "http://www.w3.org/Graphics/SVG/1.1/DTD/svg11.dtd">
<svg width="100%" height="100%" viewBox="0 0 150 161" version="1.1" xmlns="http://www.w3.org/2000/svg" xmlns:xlink="http://www.w3.org/1999/xlink" xml:space="preserve" xmlns:serif="http://www.serif.com/" style="fill-rule:evenodd;clip-rule:evenodd;stroke-linejoin:round;stroke-miterlimit:2;">
    <rect id="Artboard2" x="0" y="0" width="149.916" height="160.237" style="fill:none;"/>
    <clipPath id="_clip1">
        <rect x="0" y="0" width="149.916" height="160.237"/>
    </clipPath>
    <g clip-path="url(#_clip1)">
        <g id="Secundario">
            <path id="Cuerpo" d="M127.065,64.64c-4.021,-46.842 -48.683,-51.718 -57.155,-52.825c-27.5,-3.593 -62.228,-13.685 -69.283,-11.511c-6.36,1.959 41.945,29.707 36.571,39.216c-8.321,14.722 -2.011,41.189 -3.509,52.82l-2.234,24.126c-0,18.972 -18.28,39.641 -0.315,40.198c0.475,0.016 0.932,-0.186 1.24,-0.548c2.821,-3.202 17.602,-18.886 32.136,-13.29c17.802,6.853 21.643,2.368 38.007,2.236c17.833,-0.142 23.044,20.785 30.461,13.717c5.278,-5.03 -6.097,-20.713 -6.097,-31.054l-0.227,-23.196c27.065,-20.945 26.989,-44.127 17.445,-40.926c-4.756,1.595 -7.745,7.669 -17.023,12.328l-0.017,-11.291Z" style="fill:#ef4444;"/>
            <path id="Sombra-mano" serif:id="Sombra mano" d="M147.949,64.125c-1.84,9.137 -7.151,16.907 -12.294,25.392c-0.961,1.587 -9.143,15.972 -8.995,15.012c9.671,-7.394 15.375,-14.82 18.804,-20.575c7.818,-13.117 2.677,-20.78 2.485,-19.829Z" style="fill:#cd3839;"/>
            <path id="Sombra" d="M43.048,79.114c-4.561,-25.881 5.945,-45.888 0.949,-53.449c-4.806,-7.273 -39.889,-25.301 -43.37,-25.361c-6.654,-0.115 41.945,29.707 36.571,39.216c-4.426,7.83 -4.712,18.984 -4.236,29.46c0.107,2.371 -29.223,19.249 -29.912,30.143c-0.541,8.568 31.16,-10.828 30.639,-6.783l-2.234,24.126c-0,18.972 -18.28,39.641 -0.315,40.198c0.475,0.016 0.932,-0.186 1.24,-0.548c2.821,-3.202 17.602,-18.886 32.136,-13.29c17.802,6.853 21.645,2.529 38.007,2.236c8.004,-0.142 -8.224,-4.926 -28.067,-9.963c-16.467,-4.179 -34.066,0.643 -34.959,-8.804c1.458,-12.443 6.037,-36.429 3.551,-47.181Z" style="fill:#cd3839;"/>
            <g id="Cara-Molde" serif:id="Cara Molde">
                <path d="M56.626,75.862c4.721,2.514 16.012,5.705 25.368,5.341c11.421,-0.445 20.992,-4.839 24.272,-6.635c10.439,-5.715 16.161,-29.45 5.77,-34.998c-12.824,-6.845 -19.394,3.28 -29.621,4.268c-9.87,0.953 -23.204,-11.515 -32.704,-3.545c-10.843,9.097 -6.525,28.413 6.915,35.569Z" style="fill:#66001b;"/>
                <path id="Sombra1" serif:id="Sombra" d="M56.626,75.862c4.721,2.514 16.012,5.705 25.368,5.341c11.421,-0.445 20.992,-4.839 24.272,-6.635c6.674,-3.654 -20.537,7.422 -46.852,-6.771c-10.28,-5.545 -7.364,-29.563 -9.703,-27.504c-10.623,9.353 -6.525,28.413 6.915,35.569Z" style="fill:#530016;"/>
            </g>
            <rect x="65.914" y="53.429" width="6.683" height="9.198" style="fill:#fff;"/>
            <rect x="88.864" y="53.429" width="6.683" height="9.198" style="fill:#fff;"/>
        </g>
    </g>
</svg>
