<?xml version="1.0" standalone="no"?>
<!DOCTYPE svg PUBLIC "-//W3C//DTD SVG 20010904//EN"
 "http://www.w3.org/TR/2001/REC-SVG-20010904/DTD/svg10.dtd">
<svg version="1.0" xmlns="http://www.w3.org/2000/svg"
 width="512.000000pt" height="512.000000pt" viewBox="0 0 512.000000 512.000000"
 preserveAspectRatio="xMidYMid meet">
<metadata>
Created by potrace 1.14, written by Peter Selinger 2001-2017
</metadata>
<g transform="translate(0.000000,512.000000) scale(0.100000,-0.100000)"
fill="#000000" stroke="none">
<path d="M0 4496 l0 -624 44 -83 c48 -91 68 -165 59 -219 -2 -19 -27 -81 -54
-137 l-49 -102 0 -1666 0 -1665 2560 0 2560 0 0 1430 c0 1278 -2 1434 -16
1477 -114 345 -315 705 -545 977 -61 72 -266 276 -328 326 -23 19 -53 43 -64
54 -66 57 -355 256 -407 279 -8 4 -31 17 -50 28 -54 33 -208 112 -280 143 -36
16 -83 36 -105 46 -91 40 -351 131 -470 165 -148 42 -411 104 -505 120 -19 3
-60 10 -90 15 -30 5 -75 12 -100 15 -25 3 -52 7 -60 10 -8 2 -40 6 -70 10 -30
3 -84 10 -120 15 -38 6 -447 10 -987 10 l-923 0 0 -624z"/>
</g>
</svg>
