<?xml version="1.0" encoding="UTF-8" standalone="no"?>
<!DOCTYPE svg PUBLIC "-//W3C//DTD SVG 1.1//EN" "http://www.w3.org/Graphics/SVG/1.1/DTD/svg11.dtd">
<svg width="100%" height="100%" viewBox="0 0 512 512" version="1.1" xmlns="http://www.w3.org/2000/svg" xmlns:xlink="http://www.w3.org/1999/xlink" xml:space="preserve" xmlns:serif="http://www.serif.com/" style="fill-rule:evenodd;clip-rule:evenodd;stroke-linejoin:round;stroke-miterlimit:2;">
    <rect id="Favicon" x="0" y="0" width="512" height="512" style="fill:none;"/>
    <clipPath id="_clip1">
        <rect x="0" y="0" width="512" height="512"/>
    </clipPath>
    <g clip-path="url(#_clip1)">
        <g id="Secundario">
            <path id="Cuerpo" d="M527.775,307.136c-23.234,-270.657 -281.302,-298.832 -330.251,-305.228c-158.905,-20.763 -359.566,-79.077 -400.331,-66.516c-36.748,11.322 242.363,171.656 211.311,226.598c-48.078,85.067 -11.617,237.997 -20.275,305.203l-12.908,139.404c0,110.888 -108.071,231.802 1.844,232.339c0.469,0.002 0.915,-0.206 1.213,-0.568c7.346,-8.712 98.474,-113.915 187.979,-79.458c102.862,39.599 125.053,13.682 219.606,12.924c103.042,-0.826 133.155,120.098 176.011,79.254c30.497,-29.064 -35.231,-119.683 -35.231,-179.435l-1.311,-134.029c156.388,-121.024 155.948,-254.973 100.803,-236.48c-27.484,9.218 -44.755,44.317 -98.362,71.235l-0.098,-65.243Z" style="fill:#ef4444;"/>
            <path id="Sombra" d="M42.31,390.773c-26.356,-149.545 34.351,-265.152 5.484,-308.837c-27.773,-42.027 -230.488,-146.197 -250.601,-146.544c-38.447,-0.664 242.363,171.656 211.311,226.598c-25.572,45.246 -27.228,109.691 -24.477,170.225c0.623,13.701 -168.855,111.224 -172.834,174.175c-3.129,49.503 180.046,-62.566 177.036,-39.197l-12.908,139.404c0,110.888 -108.071,231.802 1.844,232.339c0.469,0.002 0.915,-0.206 1.213,-0.568c7.346,-8.712 98.474,-113.915 187.979,-79.458c102.862,39.599 125.065,14.612 219.606,12.924c46.248,-0.826 -47.517,-28.466 -162.173,-57.568c-95.15,-24.151 -196.838,3.715 -202.001,-50.874c8.426,-71.895 34.882,-210.49 20.521,-272.619Z" style="fill:#cd3839;"/>
            <g id="Cara-Molde" serif:id="Cara Molde">
                <path d="M120.762,371.982c27.28,14.526 92.523,32.964 146.58,30.86c65.998,-2.568 121.299,-27.962 140.249,-38.337c60.322,-33.024 93.386,-170.17 33.34,-202.223c-74.099,-39.555 -112.062,18.948 -171.153,24.657c-57.033,5.511 -134.08,-66.536 -188.971,-20.481c-62.651,52.566 -37.701,164.173 39.955,205.524Z" style="fill:#66001b;"/>
                <path id="Sombra1" serif:id="Sombra" d="M120.762,371.982c27.28,14.526 92.523,32.964 146.58,30.86c65.998,-2.568 121.299,-27.962 140.249,-38.337c38.566,-21.113 -118.663,42.887 -270.716,-39.124c-59.401,-32.038 -42.554,-170.82 -56.068,-158.923c-61.382,54.042 -37.701,164.173 39.955,205.524Z" style="fill:#530016;"/>
            </g>
            <rect x="174.432" y="242.362" width="38.617" height="53.147" style="fill:#fff;"/>
            <rect x="307.043" y="242.362" width="38.617" height="53.147" style="fill:#fff;"/>
        </g>
    </g>
</svg>
